HIERARCHY
ROOT hip
{
  OFFSET 0 0 0
  CHANNELS 6 Xposition Yposition Zposition Zrotation Yrotation Xrotation
  JOINT abdomen
  {
    OFFSET 0 20.6881 -0.73152
    CHANNELS 3 Zrotation Xrotation Yrotation
    JOINT chest
    {
      OFFSET 0 11.7043 -0.48768
      CHANNELS 3 Zrotation Xrotation Yrotation
      JOINT neck
      {
        OFFSET 0 22.1894 -2.19456
        CHANNELS 3 Zrotation Xrotation Yrotation
        JOINT head
        {
          OFFSET -0.24384 7.07133 1.2192
          CHANNELS 3 Zrotation Xrotation Yrotation
          JOINT leftEye
          {
            OFFSET 4.14528 8.04674 8.04672
            CHANNELS 3 Zrotation Xrotation Yrotation
            End Site
            {
              OFFSET 1 0 0
            }
          }
          JOINT rightEye
          {
            OFFSET -3.6576 8.04674 8.04672
            CHANNELS 3 Zrotation Xrotation Yrotation
            End Site
            {
              OFFSET 1 0 0
            }
          }
        }
      }
      JOINT rCollar
      {
        OFFSET -2.68224 19.2634 -4.8768
        CHANNELS 3 Zrotation Xrotation Yrotation
        JOINT rShldr
        {
          OFFSET -8.77824 -1.95073 1.46304
          CHANNELS 3 Zrotation Xrotation Yrotation
          JOINT rForeArm
          {
            OFFSET -28.1742 -1.7115 0.48768
            CHANNELS 3 Zrotation Xrotation Yrotation
            JOINT rHand
            {
              OFFSET -22.5879 0.773209 7.07136
              CHANNELS 3 Zrotation Xrotation Yrotation
              JOINT rThumb1
              {
                OFFSET -1.2192 -0.487915 3.41376
                CHANNELS 3 Zrotation Xrotation Yrotation
                JOINT rThumb2
                {
                  OFFSET -3.37035 -0.52449 3.41376
                  CHANNELS 3 Zrotation Xrotation Yrotation
                  End Site
                  {
                    OFFSET -1.78271 -1.18214 1.43049
                  }
                }
              }
              JOINT rIndex1
              {
                OFFSET -7.75947 0.938293 5.60832
                CHANNELS 3 Zrotation Xrotation Yrotation
                JOINT rIndex2
                {
                  OFFSET -2.54057 -0.884171 1.56538
                  CHANNELS 3 Zrotation Xrotation Yrotation
                  End Site
                  {
                    OFFSET -1.62519 -0.234802 1.16502
                  }
                }
              }
              JOINT rMid1
              {
                OFFSET -8.24714 1.18213 3.41376
                CHANNELS 3 Zrotation Xrotation Yrotation
                JOINT rMid2
                {
                  OFFSET -3.10165 -0.590103 1.0647
                  CHANNELS 3 Zrotation Xrotation Yrotation
                  End Site
                  {
                    OFFSET -2.48547 -0.328903 0.83742
                  }
                }
              }
              JOINT rRing1
              {
                OFFSET -8.82822 0.546677 1.51678
                CHANNELS 3 Zrotation Xrotation Yrotation
                JOINT rRing2
                {
                  OFFSET -2.60934 -0.819778 -0.0198488
                  CHANNELS 3 Zrotation Xrotation Yrotation
                  End Site
                  {
                    OFFSET -2.33842 -0.294052 0.168128
                  }
                }
              }
              JOINT rPinky1
              {
                OFFSET -8.27202 -0.0477905 -0.4584
                CHANNELS 3 Zrotation Xrotation Yrotation
                JOINT rPinky2
                {
                  OFFSET -1.82734 -0.647385 -0.700984
                  CHANNELS 3 Zrotation Xrotation Yrotation
                  End Site
                  {
                    OFFSET -1.69225 -0.51767 -0.607171
                  }
                }
              }
            }
          }
        }
      }
      JOINT lCollar
      {
        OFFSET 2.68224 19.2634 -4.8768
        CHANNELS 3 Zrotation Xrotation Yrotation
        JOINT lShldr
        {
          OFFSET 8.77824 -1.95073 1.46304
          CHANNELS 3 Zrotation Xrotation Yrotation
          JOINT lForeArm
          {
            OFFSET 28.1742 -1.7115 0.48768
            CHANNELS 3 Zrotation Xrotation Yrotation
            JOINT lHand
            {
              OFFSET 22.5879 0.773209 7.07136
              CHANNELS 3 Zrotation Xrotation Yrotation
              JOINT lThumb1
              {
                OFFSET 1.2192 -0.487915 3.41376
                CHANNELS 3 Zrotation Xrotation Yrotation
                JOINT lThumb2
                {
                  OFFSET 3.37035 -0.52449 3.41376
                  CHANNELS 3 Zrotation Xrotation Yrotation
                  End Site
                  {
                    OFFSET 1.78271 -1.18214 1.43049
                  }
                }
              }
              JOINT lIndex1
              {
                OFFSET 7.75947 0.938293 5.60832
                CHANNELS 3 Zrotation Xrotation Yrotation
                JOINT lIndex2
                {
                  OFFSET 2.54057 -0.884171 1.56538
                  CHANNELS 3 Zrotation Xrotation Yrotation
                  End Site
                  {
                    OFFSET 1.62519 -0.234802 1.16502
                  }
                }
              }
              JOINT lMid1
              {
                OFFSET 8.24714 1.18213 3.41376
                CHANNELS 3 Zrotation Xrotation Yrotation
                JOINT lMid2
                {
                  OFFSET 3.10165 -0.590103 1.0647
                  CHANNELS 3 Zrotation Xrotation Yrotation
                  End Site
                  {
                    OFFSET 2.48547 -0.328903 0.83742
                  }
                }
              }
              JOINT lRing1
              {
                OFFSET 8.82822 0.546677 1.51678
                CHANNELS 3 Zrotation Xrotation Yrotation
                JOINT lRing2
                {
                  OFFSET 2.60934 -0.819778 -0.0198488
                  CHANNELS 3 Zrotation Xrotation Yrotation
                  End Site
                  {
                    OFFSET 2.33842 -0.294052 0.168128
                  }
                }
              }
              JOINT lPinky1
              {
                OFFSET 8.27202 -0.0477905 -0.4584
                CHANNELS 3 Zrotation Xrotation Yrotation
                JOINT lPinky2
                {
                  OFFSET 1.82734 -0.647385 -0.700984
                  CHANNELS 3 Zrotation Xrotation Yrotation
                  End Site
                  {
                    OFFSET 1.69225 -0.51767 -0.607171
                  }
                }
              }
            }
          }
        }
      }
    }
  }
  JOINT rButtock
  {
    OFFSET -8.77824 4.35084 1.2192
    CHANNELS 3 Zrotation Xrotation Yrotation
    JOINT rThigh
    {
      OFFSET 0 -1.70687 -2.19456
      CHANNELS 3 Zrotation Xrotation Yrotation
      JOINT rShin
      {
        OFFSET 0 -36.8199 0.73152
        CHANNELS 3 Zrotation Xrotation Yrotation
        JOINT rFoot
        {
          OFFSET 0.73152 -45.1104 -5.12064
          CHANNELS 3 Zrotation Xrotation Yrotation
          End Site
          {
            OFFSET -1.1221 -3.69964 12.103
          }
        }
      }
    }
  }
  JOINT lButtock
  {
    OFFSET 8.77824 4.35084 1.2192
    CHANNELS 3 Zrotation Xrotation Yrotation
    JOINT lThigh
    {
      OFFSET 0 -1.70687 -2.19456
      CHANNELS 3 Zrotation Xrotation Yrotation
      JOINT lShin
      {
        OFFSET 0 -36.8199 0.73152
        CHANNELS 3 Zrotation Xrotation Yrotation
        JOINT lFoot
        {
          OFFSET -0.73152 -45.1104 -5.12064
          CHANNELS 3 Zrotation Xrotation Yrotation
          End Site
          {
            OFFSET 1.1221 -3.69964 12.103
          }
        }
      }
    }
  }
}
MOTION
Frames:	4
Frame Time:	0.00833333
-24.1763 80.1732 -1.93836 -6.4541 32.6364 -0.3783 7.19209 6.34513 3.19748 1.06565 -5.16203 1.00454 -9.04367 0.539137 -3.68425 7.63514 1.40426 -4.73569 -0.0 0.0 0.0 -0.0 0.0 0.0 4.97887e-14 -1.63494e-14 -7.5935e-13 80.4013 11.6727 -4.89937 -17.4913 -10.1519 32.884 -0.00281692 -1.5656 -0.220081 3.31269e-09 -3.2104e-10 -2.74791e-09 5.73417e-09 -5.47732e-10 -4.76426e-09 3.31269e-09 -3.21052e-10 -2.74791e-09 7.73091 5.47488 0.417314 3.31269e-09 -3.21046e-10 -2.74791e-09 2.90554 0.965183 0.102902 3.31269e-09 -3.21047e-10 -2.7479e-09 10.2786 0.731801 0.0259123 3.31268e-09 -3.21044e-10 -2.7479e-09 2.22167 -0.733487 -0.20892 4.9841e-14 -1.63499e-14 -7.59598e-13 -81.1685 -20.2895 9.96404 5.41853 -1.79131 -9.44792 2.44303 39.844 -6.73389 5.22629e-10 -2.81938e-10 3.82737e-11 8.88301e-10 -5.59336e-10 5.66841e-11 5.22628e-10 -2.81941e-10 3.82795e-11 -7.73091 5.47488 -0.417314 5.22628e-10 -2.81938e-10 3.82742e-11 -2.90554 0.965183 -0.102902 5.22627e-10 -2.81938e-10 3.82704e-11 -10.2786 0.731801 -0.0259123 5.22631e-10 -2.81935e-10 3.82587e-11 -2.22167 -0.733487 0.20892 -2.03217e-16 0.0 -3.88251e-19 2.73523 10.8038 6.22524 -0.128878 29.4483 0.707609 -2.15433 11.9044 9.88737 2.03217e-16 0.0 3.88251e-19 -2.15437 -40.6967 0.846457 0.27293 34.2696 -0.320192 0.595514 2.58964 3.19443
-23.3878 80.1897 -0.791016 -6.2507 32.5273 -0.5354 6.96331 6.56316 3.44008 1.01761 -4.7927 1.05885 -9.07265 0.186691 -3.70309 7.52077 1.2162 -4.70942 -0.0 0.0 0.0 -0.0 0.0 0.0 -5.51399e-15 6.61927e-14 -6.40758e-13 80.4227 11.5111 -4.81581 -17.2757 -9.93105 32.4083 -0.00407431 -1.88592 -0.265135 3.1604e-09 -1.18764e-09 -1.74197e-09 5.46779e-09 -2.04836e-09 -3.01996e-09 3.16041e-09 -1.18765e-09 -1.74198e-09 7.73091 5.47488 0.417314 3.1604e-09 -1.18765e-09 -1.74197e-09 2.90554 0.965183 0.102902 3.1604e-09 -1.18765e-09 -1.74197e-09 10.2786 0.731801 0.0259123 3.16039e-09 -1.18764e-09 -1.74196e-09 2.22167 -0.733487 -0.20892 -5.49721e-15 6.61984e-14 -6.41006e-13 -81.8639 -18.0177 9.47164 5.65713 -1.89295 -9.87384 2.16144 37.9069 -6.28185 1.16058e-09 -5.48997e-10 7.95528e-10 2.01371e-09 -1.00848e-09 1.34504e-09 1.16058e-09 -5.49e-10 7.95533e-10 -7.73091 5.47488 -0.417314 1.16058e-09 -5.48998e-10 7.95528e-10 -2.90554 0.965183 -0.102902 1.16057e-09 -5.48998e-10 7.95526e-10 -10.2786 0.731801 -0.0259123 1.16058e-09 -5.48995e-10 7.95515e-10 -2.22167 -0.733487 0.20892 -2.03217e-16 0.0 -3.88251e-19 2.67513 8.83262 6.45019 -0.182795 33.2657 0.754855 -2.51385 13.0699 11.1176 2.03217e-16 0.0 3.88251e-19 -2.06537 -40.0746 1.39288 0.28972 35.0143 -0.294422 0.602387 2.13514 3.02065
-22.6695 80.2722 0.323846 -6.1238 32.3302 -0.6771 6.60528 6.79821 3.63227 1.01742 -4.43274 1.09801 -9.07997 -0.164464 -3.69319 7.36212 1.03134 -4.63232 -0.0 0.0 0.0 -0.0 0.0 0.0 -5.56794e-14 1.3651e-13 -4.85589e-13 80.4004 11.5417 -4.68175 -17.046 -9.69798 31.9096 -0.00574709 -2.1906 -0.308016 2.82713e-09 -1.96808e-09 -6.57948e-10 4.88837e-09 -3.40046e-09 -1.1402e-09 2.82714e-09 -1.9681e-09 -6.57957e-10 7.73091 5.47488 0.417314 2.82713e-09 -1.96809e-09 -6.57945e-10 2.90554 0.965183 0.102902 2.82713e-09 -1.9681e-09 -6.57945e-10 10.2786 0.731801 0.0259123 2.82712e-09 -1.96809e-09 -6.57936e-10 2.22167 -0.733487 -0.20892 -5.57086e-14 1.36521e-13 -4.85837e-13 -82.6116 -15.1534 8.95903 5.96009 -2.02498 -10.4158 1.82972 35.3461 -5.72204 1.8067e-09 -7.08419e-10 1.46469e-09 3.15167e-09 -1.26657e-09 2.48151e-09 1.8067e-09 -7.08421e-10 1.46469e-09 -7.73091 5.47488 -0.417314 1.8067e-09 -7.08421e-10 1.46469e-09 -2.90554 0.965183 -0.102902 1.8067e-09 -7.08421e-10 1.46469e-09 -10.2786 0.731801 -0.0259123 1.8067e-09 -7.08418e-10 1.46468e-09 -2.22167 -0.733487 0.20892 -2.03217e-16 0.0 -3.88251e-19 2.52875 6.80759 6.63397 -0.247598 37.0381 0.810075 -2.75146 13.6678 12.0832 2.03217e-16 0.0 3.88251e-19 -2.08732 -39.3619 1.92132 0.304094 35.6242 -0.267761 0.616139 1.57622 2.93114
-21.9211 80.3108 1.37422 -5.6905 32.237 -0.5281 5.89428 7.02849 3.68105 1.09841 -4.20379 1.09332 -9.05829 -0.381527 -3.64208 7.21212 0.885051 -4.50142 -0.0 0.0 0.0 -0.0 0.0 0.0 -7.90836e-14 1.79694e-13 -4.19684e-13 80.3953 11.7043 -4.5885 -16.835 -9.48676 31.456 -0.00664413 -2.32672 -0.327181 2.62343e-09 -2.25146e-09 -1.64145e-10 4.53446e-09 -3.89171e-09 -2.83624e-10 2.62343e-09 -2.25148e-09 -1.64155e-10 7.73091 5.47488 0.417314 2.62343e-09 -2.25148e-09 -1.64142e-10 2.90554 0.965183 0.102902 2.62343e-09 -2.25148e-09 -1.64142e-10 10.2786 0.731801 0.0259123 2.62341e-09 -2.25147e-09 -1.64133e-10 2.22167 -0.733487 -0.20892 -7.91543e-14 1.79708e-13 -4.19933e-13 -83.2231 -12.2515 8.59492 6.28276 -2.17121 -10.9923 1.51604 32.667 -5.17002 2.22141e-09 -4.43393e-10 1.82543e-09 3.87967e-09 -7.94178e-10 3.09355e-09 2.22141e-09 -4.43395e-10 1.82543e-09 -7.73091 5.47488 -0.417314 2.22141e-09 -4.43395e-10 1.82543e-09 -2.90554 0.965183 -0.102902 2.22141e-09 -4.43395e-10 1.82542e-09 -10.2786 0.731801 -0.0259123 2.22141e-09 -4.43392e-10 1.82542e-09 -2.22167 -0.733487 0.20892 -2.03217e-16 0.0 -3.88251e-19 2.08894 4.77677 6.61954 -0.322715 40.6363 0.868808 -2.77625 13.6951 12.4524 2.03217e-16 0.0 3.88251e-19 -2.5337 -38.5324 2.26747 0.313584 36.0262 -0.240424 0.626303 1.04949 2.81688
